<?xml version="1.0" encoding="UTF-8"?>
<!-- Created with Inkscape (http://www.inkscape.org/) -->
<svg width="256" height="256" version="1.1" viewBox="0 0 67.733 67.733" xml:space="preserve" xmlns="http://www.w3.org/2000/svg"><g stroke-linecap="round" stroke-linejoin="round"><rect width="67.733" height="67.733" ry="15" fill="#303841" stroke-width=".10583"/><path d="m27.171 12.449c-0.58509 0.94369-1.0428 1.9394-1.373 2.9869-0.33029 1.0475-0.49506 2.1939-0.49506 3.4396 0 1.2457 0.16477 2.3926 0.49506 3.4401 0.33029 1.0381 0.78795 2.0338 1.373 2.9869l0.72192-0.34003c-0.54734-0.89651-0.95778-1.8636-1.2314-2.9016-0.26423-1.0475-0.39636-2.1095-0.39636-3.1853 0-1.0758 0.13212-2.1323 0.39636-3.1703 0.27367-1.0475 0.68411-2.0196 1.2314-2.9161l-0.72192-0.34003zm21.856 0-0.72192 0.34003c0.54734 0.89651 0.95326 1.8686 1.2175 2.9161 0.27367 1.0381 0.41031 2.0945 0.41031 3.1703 0 1.0758-0.13664 2.1378-0.41031 3.1853-0.26423 1.0381-0.67016 2.0051-1.2175 2.9016l0.72192 0.34003c0.58509-0.95313 1.0428-1.9488 1.373-2.9869 0.33029-1.0475 0.49558-2.1944 0.49558-3.4401 0-1.2457-0.16528-2.3921-0.49558-3.4396-0.33029-1.0475-0.78795-2.0432-1.373-2.9869zm-25.65 0.11317c-0.6889 0-1.1983 0.20799-1.5286 0.62322-0.32086 0.40579-0.48111 0.9579-0.48111 1.6562v1.0899l-0.93431 0.070797v0.87747h0.93431v5.9314h1.1607v-5.9314h1.4578v-0.94826h-1.4578v-1.0899c0-0.88707 0.3205-1.3307 0.96222-1.3307 0.23592 0 0.49566 0.042191 0.77876 0.12712l0.25476-0.84904c-0.15099-0.066059-0.32531-0.11832-0.52348-0.15606-0.19818-0.047186-0.40617-0.070796-0.62322-0.070796zm-5.1098 0.42478c-0.22649 0-0.41538 0.070836-0.56637 0.21239-0.14155 0.14155-0.21239 0.32542-0.21239 0.5519 0 0.23592 0.070836 0.42482 0.21239 0.56637 0.15099 0.13212 0.33989 0.19844 0.56637 0.19844 0.22649 0 0.41035-0.066321 0.5519-0.19844 0.15099-0.14155 0.22634-0.33045 0.22634-0.56637 0-0.22649-0.075352-0.41035-0.22634-0.5519-0.14155-0.14155-0.32542-0.21239-0.5519-0.21239zm-0.58033 2.9445v6.8797h1.1607v-6.8797h-1.1607zm28.31 27.773c-0.6889 0-1.1983 0.20748-1.5286 0.6227-0.32086 0.40579-0.48111 0.9579-0.48111 1.6562v1.0899l-0.93431 0.070797v0.87747h0.93431v5.9314h1.1607v-5.9314h1.4578v-0.94826h-1.4578v-1.0899c0-0.88707 0.3205-1.3307 0.96222-1.3307 0.23592 0 0.49566 0.042709 0.77876 0.12764l0.25476-0.84956c-0.15099-0.06606-0.32531-0.1178-0.52348-0.15555-0.19818-0.047187-0.40617-0.070797-0.62322-0.070797zm-9.1865 0.1695v2.6474l0.056327 1.1746c-0.30198-0.24536-0.59887-0.43877-0.89142-0.58033s-0.63718-0.21239-1.0335-0.21239c-0.51903 0-1.0099 0.1467-1.4723 0.43925-0.45297 0.29254-0.82122 0.71201-1.1043 1.2594-0.27367 0.53791-0.41031 1.1799-0.41031 1.9255 0 1.1419 0.25973 2.0291 0.77876 2.6613 0.51903 0.62284 1.2078 0.93379 2.0665 0.93379 0.40579 0 0.7881-0.093932 1.1467-0.28267 0.3586-0.19818 0.67008-0.42978 0.93431-0.69402h0.042375l0.099219 0.80719h0.96222v-10.079h-1.1746zm4.0768 0.25476c-0.22649 0-0.41538 0.070836-0.56637 0.21239-0.14155 0.14155-0.21239 0.32594-0.21239 0.55242 0 0.23592 0.070836 0.4243 0.21239 0.56586 0.15099 0.13212 0.33989 0.19844 0.56637 0.19844 0.22649 0 0.41035-0.06632 0.5519-0.19844 0.15099-0.14155 0.22634-0.32993 0.22634-0.56586 0-0.22649-0.075353-0.41087-0.22634-0.55242-0.14155-0.14155-0.32542-0.21239-0.5519-0.21239zm-20.611 2.7745c-0.52847 0-1.0334 0.1467-1.5146 0.43925-0.47185 0.29254-0.85867 0.7075-1.1607 1.2454-0.29254 0.5379-0.43873 1.1794-0.43873 1.9249 0 0.75495 0.14619 1.4065 0.43873 1.9539 0.29254 0.5379 0.68892 0.94834 1.1891 1.2314 0.5096 0.28311 1.0713 0.42426 1.6847 0.42426 0.47185 0 0.89183-0.065804 1.2599-0.19792 0.37748-0.13212 0.71708-0.30192 1.0191-0.50953l-0.42478-0.76429c-0.23592 0.16043-0.50017 0.28752-0.79272 0.38189-0.28311 0.094369-0.58955 0.14159-0.91984 0.14159-0.57565 0-1.0856-0.19793-1.5291-0.59428-0.4341-0.39635-0.67925-0.98162-0.73587-1.7554h4.6002c0.018873-0.11324 0.033452-0.22627 0.042892-0.33951 0.00944-0.11324 0.013952-0.2313 0.013952-0.35398 0-0.98144-0.23612-1.7646-0.70797-2.3497-0.46241-0.58509-1.1371-0.87798-2.0242-0.87798zm7.8424 0c-0.47185 0-0.89183 0.11354-1.2599 0.34003-0.36804 0.21705-0.71719 0.49085-1.0475 0.82114h-0.042375l-0.099218-0.99115h-0.96273v6.8797h1.1607v-4.9826c0.34917-0.34917 0.66064-0.61341 0.93431-0.79272 0.28311-0.1793 0.59961-0.26923 0.94878-0.26923 0.45297 0 0.78302 0.14619 0.99064 0.43873 0.20761 0.29254 0.31161 0.75975 0.31161 1.4015v4.2044h1.1607v-4.3599c0-0.87763-0.1698-1.5428-0.50953-1.9957-0.33029-0.46241-0.85879-0.69401-1.5854-0.69401zm12.188 0.17002v6.8797h1.1607v-6.8797h-1.1607zm-20.016 0.77876c0.52847 0 0.9389 0.17432 1.2314 0.52348 0.29254 0.34917 0.43873 0.85908 0.43873 1.5291h-3.5812c0.066059-0.49072 0.19315-0.88709 0.38189-1.1891 0.19818-0.30198 0.42978-0.519 0.69402-0.65112 0.27367-0.14155 0.55198-0.21239 0.83509-0.21239zm14.849 0.027906c0.28311 0 0.5569 0.056772 0.82114 0.17002 0.27367 0.10381 0.55702 0.28767 0.84956 0.5519v3.5956c-0.56622 0.63228-1.1515 0.94826-1.7554 0.94826-0.60396 0-1.0712-0.23109-1.4015-0.6935-0.33029-0.47185-0.49558-1.1184-0.49558-1.9394 0-0.52847 0.089932-0.98613 0.26923-1.373 0.1793-0.39635 0.41542-0.70279 0.70797-0.91984 0.30198-0.22649 0.63655-0.34003 1.0046-0.34003z" fill="#c695c6" stroke-width=".10583"/><path d="m10 28v12" fill="none" stroke="#bfbfbf" stroke-dasharray="0.79375, 2.38125" stroke-width=".79375"/><path d="m12.633 12.223v1.4299c-0.6134 0.09437-1.1087 0.35358-1.4862 0.77825-0.37748 0.41523-0.56586 0.93921-0.56586 1.5715 0 0.41522 0.093932 0.77392 0.28267 1.0759 0.18874 0.29254 0.43441 0.54724 0.73639 0.7643 0.30198 0.21705 0.61797 0.41498 0.94826 0.59428 0.33973 0.1793 0.66075 0.36368 0.96273 0.55242 0.30198 0.18874 0.54713 0.40073 0.73587 0.63665 0.18874 0.23592 0.28319 0.51927 0.28319 0.84956 0 0.46241-0.13212 0.83517-0.39636 1.1183-0.2548 0.28311-0.64665 0.42478-1.1751 0.42478-0.4341 0-0.82996-0.080384-1.1886-0.24081-0.3586-0.16043-0.68917-0.38248-0.99115-0.66559l-0.5519 0.72192c0.28311 0.32086 0.63226 0.58059 1.0475 0.77876 0.42466 0.19818 0.87729 0.31624 1.3586 0.35398v1.4015h0.84956v-1.4299c0.67002-0.10381 1.203-0.38212 1.5994-0.83509 0.39635-0.45297 0.5948-1.0242 0.5948-1.7131 0-0.45297-0.094448-0.83476-0.28319-1.1462-0.18874-0.31142-0.43389-0.57567-0.73587-0.79272-0.30198-0.22649-0.623-0.42945-0.96273-0.60875-0.33029-0.1793-0.64628-0.35414-0.94826-0.524-0.30198-0.1793-0.54765-0.37723-0.73639-0.59428-0.18874-0.21705-0.28319-0.47678-0.28319-0.77876 0-0.40579 0.12761-0.73132 0.3824-0.97668 0.2548-0.2548 0.5944-0.38189 1.0191-0.38189 0.38692 0 0.71748 0.065804 0.99115 0.19792 0.27367 0.13212 0.52334 0.32553 0.74982 0.58033l0.62322-0.63665c-0.23592-0.30198-0.51927-0.54765-0.84956-0.73639-0.32086-0.19817-0.70768-0.32075-1.1607-0.36794v-1.4015h-0.84956zm42.565 0v1.4299c-0.6134 0.09437-1.1087 0.35358-1.4862 0.77825-0.37748 0.41523-0.56637 0.93921-0.56637 1.5715 0 0.41522 0.094448 0.77392 0.28319 1.0759 0.18874 0.29254 0.43441 0.54724 0.73639 0.7643 0.30198 0.21705 0.61797 0.41498 0.94826 0.59428 0.33973 0.1793 0.66075 0.36368 0.96273 0.55242 0.30198 0.18874 0.54713 0.40073 0.73587 0.63665 0.18874 0.23592 0.28319 0.51927 0.28319 0.84956 0 0.46241-0.13212 0.83517-0.39636 1.1183-0.2548 0.28311-0.64665 0.42478-1.1751 0.42478-0.4341 0-0.83047-0.080384-1.1891-0.24081-0.3586-0.16043-0.68866-0.38248-0.99064-0.66559l-0.5519 0.72192c0.28311 0.32086 0.63226 0.58059 1.0475 0.77876 0.42466 0.19818 0.87729 0.31624 1.3586 0.35398v1.4015h0.84956v-1.4299c0.67002-0.10381 1.203-0.38212 1.5994-0.83509 0.39635-0.45297 0.5948-1.0242 0.5948-1.7131 0-0.45297-0.094448-0.83476-0.28319-1.1462s-0.43441-0.57567-0.73639-0.79272c-0.30198-0.22649-0.62249-0.42945-0.96222-0.60875-0.33029-0.1793-0.6468-0.35414-0.94878-0.524-0.30198-0.1793-0.54713-0.37723-0.73587-0.59428-0.18874-0.21705-0.28319-0.47678-0.28319-0.77876 0-0.40579 0.12761-0.73132 0.38241-0.97668 0.2548-0.2548 0.5944-0.38189 1.0191-0.38189 0.38691 0 0.71697 0.065804 0.99064 0.19792s0.52386 0.32553 0.75034 0.58033l0.62322-0.63665c-0.23592-0.30198-0.51927-0.54765-0.84956-0.73639-0.32086-0.19817-0.70768-0.32075-1.1607-0.36794v-1.4015h-0.84956zm-31.241 15.571v1.4294c-0.6134 0.09437-1.1087 0.3541-1.4862 0.77876-0.37748 0.41522-0.56586 0.93869-0.56586 1.571 0 0.41522 0.093931 0.77392 0.28267 1.0759 0.18874 0.29254 0.43441 0.54724 0.73639 0.76429 0.30198 0.21705 0.61797 0.4155 0.94826 0.5948 0.33973 0.1793 0.66075 0.36317 0.96273 0.5519 0.30198 0.18874 0.54713 0.40125 0.73587 0.63717 0.18874 0.23592 0.28319 0.51875 0.28319 0.84904 0 0.46241-0.13212 0.83517-0.39636 1.1183-0.2548 0.28311-0.64665 0.42478-1.1751 0.42478-0.4341 0-0.82995-0.079868-1.1886-0.2403-0.3586-0.16043-0.68917-0.38248-0.99115-0.66559l-0.5519 0.72192c0.28311 0.32086 0.63226 0.58059 1.0475 0.77876 0.42466 0.19818 0.87729 0.31572 1.3586 0.35347v1.4015h0.84956v-1.4294c0.67002-0.10381 1.203-0.38212 1.5994-0.83509s0.5948-1.0242 0.5948-1.7131c0-0.45297-0.094449-0.83528-0.28319-1.1467-0.18874-0.31142-0.43389-0.57567-0.73587-0.79272-0.30198-0.22649-0.623-0.42945-0.96273-0.60875-0.33029-0.1793-0.64628-0.35362-0.94826-0.52348-0.30198-0.1793-0.54765-0.37775-0.73639-0.5948-0.18874-0.21705-0.28319-0.47626-0.28319-0.77825 0-0.40579 0.12761-0.73132 0.38241-0.97668 0.2548-0.2548 0.5944-0.38241 1.0191-0.38241 0.38691 0 0.71748 0.06632 0.99115 0.19844 0.27367 0.13212 0.52334 0.32553 0.74982 0.58033l0.62322-0.63717c-0.23592-0.30198-0.51927-0.54713-0.84956-0.73587-0.32086-0.19817-0.70768-0.32075-1.1607-0.36794v-1.4015h-0.84956zm26.372 0v1.4294c-0.6134 0.09437-1.1087 0.3541-1.4862 0.77876-0.37748 0.41522-0.56586 0.93869-0.56586 1.571 0 0.41522 0.093931 0.77392 0.28267 1.0759 0.18874 0.29254 0.43441 0.54724 0.73639 0.76429s0.61797 0.4155 0.94826 0.5948c0.33973 0.1793 0.66075 0.36317 0.96273 0.5519 0.30198 0.18874 0.54713 0.40125 0.73587 0.63717 0.18874 0.23592 0.28319 0.51875 0.28319 0.84904 0 0.46241-0.13212 0.83517-0.39636 1.1183-0.2548 0.28311-0.64665 0.42478-1.1751 0.42478-0.4341 0-0.83047-0.079868-1.1891-0.2403s-0.68866-0.38248-0.99064-0.66559l-0.5519 0.72192c0.28311 0.32086 0.63226 0.58059 1.0475 0.77876 0.42466 0.19818 0.87729 0.31572 1.3586 0.35347v1.4015h0.84956v-1.4294c0.67002-0.10381 1.203-0.38212 1.5994-0.83509 0.39635-0.45297 0.5948-1.0242 0.5948-1.7131 0-0.45297-0.094449-0.83528-0.28319-1.1467-0.18874-0.31142-0.43389-0.57567-0.73587-0.79272-0.30198-0.22649-0.623-0.42945-0.96273-0.60875-0.33029-0.1793-0.64628-0.35362-0.94826-0.52348-0.30198-0.1793-0.54765-0.37775-0.73639-0.5948-0.18874-0.21705-0.28319-0.47626-0.28319-0.77825 0-0.40579 0.12761-0.73132 0.3824-0.97668 0.2548-0.2548 0.5944-0.38241 1.0191-0.38241 0.38691 0 0.71748 0.06632 0.99115 0.19844 0.27367 0.13212 0.52334 0.32553 0.74982 0.58033l0.62322-0.63717c-0.23592-0.30198-0.51927-0.54713-0.84956-0.73587-0.32086-0.19817-0.70768-0.32075-1.1607-0.36794v-1.4015h-0.84956zm-37.696 15.571v1.4299c-0.6134 0.094369-1.1087 0.35358-1.4862 0.77825-0.37748 0.41522-0.56586 0.93921-0.56586 1.5715 0 0.41523 0.093932 0.77392 0.28267 1.0759 0.18874 0.29254 0.43441 0.54725 0.73639 0.7643s0.61797 0.41549 0.94826 0.5948c0.33973 0.1793 0.66075 0.36316 0.96273 0.5519s0.54713 0.40073 0.73587 0.63665c0.18874 0.23592 0.28319 0.51927 0.28319 0.84956 0 0.46241-0.13212 0.83517-0.39636 1.1183-0.2548 0.28311-0.64665 0.42478-1.1751 0.42478-0.4341 0-0.82996-0.080384-1.1886-0.24081-0.3586-0.16043-0.68917-0.38197-0.99115-0.66508l-0.5519 0.72192c0.28311 0.32086 0.63226 0.58007 1.0475 0.77825 0.42466 0.19818 0.87729 0.31624 1.3586 0.35398v1.4015h0.84956v-1.4299c0.67002-0.10381 1.203-0.38212 1.5994-0.83509 0.39635-0.45297 0.5948-1.0237 0.5948-1.7126 0-0.45297-0.094448-0.83528-0.28319-1.1467-0.18874-0.31142-0.43389-0.57567-0.73587-0.79272-0.30198-0.22649-0.623-0.42945-0.96273-0.60875-0.33029-0.1793-0.64628-0.35362-0.94826-0.52348-0.30198-0.1793-0.54765-0.37775-0.73639-0.5948-0.18874-0.21705-0.28319-0.47678-0.28319-0.77876 0-0.40579 0.12761-0.73132 0.3824-0.97668 0.2548-0.2548 0.5944-0.38189 1.0191-0.38189 0.38692 0 0.71748 0.065803 0.99115 0.19792 0.27367 0.13212 0.52334 0.32553 0.74982 0.58033l0.62322-0.63665c-0.23592-0.30198-0.51927-0.54765-0.84956-0.73639-0.32086-0.19817-0.70768-0.32075-1.1607-0.36794v-1.4015h-0.84956zm37.272 0v1.4299c-0.6134 0.094369-1.1093 0.35358-1.4867 0.77825-0.37748 0.41522-0.56586 0.93921-0.56586 1.5715 0 0.41523 0.094448 0.77392 0.28319 1.0759 0.18874 0.29254 0.43389 0.54725 0.73587 0.7643s0.61797 0.41549 0.94826 0.5948c0.33973 0.1793 0.66075 0.36316 0.96273 0.5519s0.54713 0.40073 0.73587 0.63665c0.18874 0.23592 0.28319 0.51927 0.28319 0.84956 0 0.46241-0.13212 0.83517-0.39636 1.1183-0.2548 0.28311-0.64614 0.42478-1.1746 0.42478-0.4341 0-0.83047-0.080384-1.1891-0.24081-0.3586-0.16043-0.68917-0.38197-0.99115-0.66508l-0.5519 0.72192c0.28311 0.32086 0.63226 0.58007 1.0475 0.77825 0.42466 0.19818 0.87781 0.31624 1.3591 0.35398v1.4015h0.84904v-1.4299c0.67002-0.10381 1.203-0.38212 1.5994-0.83509 0.39635-0.45297 0.5948-1.0237 0.5948-1.7126 0-0.45297-0.094448-0.83528-0.28319-1.1467-0.18874-0.31142-0.43389-0.57567-0.73587-0.79272-0.30198-0.22649-0.623-0.42945-0.96273-0.60875-0.33029-0.1793-0.64628-0.35362-0.94826-0.52348-0.30198-0.1793-0.54765-0.37775-0.73639-0.5948-0.18874-0.21705-0.28267-0.47678-0.28267-0.77876 0-0.40579 0.12709-0.73132 0.38189-0.97668 0.2548-0.2548 0.5944-0.38189 1.0191-0.38189 0.38691 0 0.71748 0.065803 0.99115 0.19792 0.27367 0.13212 0.52386 0.32553 0.75034 0.58033l0.6227-0.63665c-0.23592-0.30198-0.51927-0.54765-0.84956-0.73639-0.32086-0.19817-0.70768-0.32075-1.1607-0.36794v-1.4015h-0.84904z" fill="#5fb4b4" stroke-width=".10583"/><path d="m31.8 12.563c-0.6889 0-1.1988 0.20799-1.5291 0.62322-0.32086 0.40579-0.48111 0.9579-0.48111 1.6562v1.0899l-0.93431 0.070797v0.87747h0.93431v5.9314h1.1607v-5.9314h1.4583v-0.94826h-1.4583v-1.0899c0-0.88707 0.32102-1.3307 0.96273-1.3307 0.23592 0 0.49514 0.042191 0.77825 0.12712l0.25528-0.84904c-0.15099-0.066059-0.32582-0.11832-0.524-0.15606-0.19818-0.047186-0.40565-0.070796-0.6227-0.070796zm4.4586 3.1993c-0.55678 0-1.0802 0.14167-1.571 0.42478-0.48128 0.28311-0.87314 0.69354-1.1751 1.2314-0.29254 0.53791-0.43873 1.194-0.43873 1.9678 0 0.75495 0.14619 1.401 0.43873 1.9389 0.30198 0.5379 0.69384 0.94834 1.1751 1.2314 0.49072 0.28311 1.0142 0.42478 1.571 0.42478 0.56622 0 1.0902-0.14167 1.5715-0.42478 0.48128-0.28311 0.86811-0.69354 1.1607-1.2314 0.30198-0.5379 0.4532-1.1839 0.4532-1.9389 0-0.77383-0.15122-1.4299-0.4532-1.9678-0.29254-0.5379-0.67937-0.94834-1.1607-1.2314-0.48128-0.28311-1.0053-0.42478-1.5715-0.42478zm7.6724 0c-0.55678 0-1.0808 0.14167-1.5715 0.42478-0.48128 0.28311-0.87262 0.69354-1.1746 1.2314-0.29254 0.53791-0.43873 1.194-0.43873 1.9678 0 0.75495 0.14619 1.401 0.43873 1.9389 0.30198 0.5379 0.69332 0.94834 1.1746 1.2314 0.49072 0.28311 1.0147 0.42478 1.5715 0.42478 0.56622 0 1.0902-0.14167 1.5715-0.42478 0.48128-0.28311 0.86811-0.69354 1.1607-1.2314 0.30198-0.5379 0.45268-1.1839 0.45268-1.9389 0-0.77383-0.1507-1.4299-0.45268-1.9678-0.29254-0.5379-0.67937-0.94834-1.1607-1.2314-0.48128-0.28311-1.0053-0.42478-1.5715-0.42478zm-7.6724 0.96273c0.59453 0 1.0713 0.24515 1.4299 0.73587 0.36804 0.49072 0.5519 1.1328 0.5519 1.9255 0 0.78326-0.18386 1.4203-0.5519 1.911-0.3586 0.48128-0.83536 0.72192-1.4299 0.72192-0.58509 0-1.0613-0.24064-1.4294-0.72192-0.36804-0.49072-0.55242-1.1277-0.55242-1.911 0-0.7927 0.18438-1.4347 0.55242-1.9255s0.84428-0.73587 1.4294-0.73587zm7.6724 0c0.59453 0 1.0713 0.24515 1.4299 0.73587 0.36804 0.49072 0.5519 1.1328 0.5519 1.9255 0 0.78326-0.18386 1.4203-0.5519 1.911-0.3586 0.48128-0.83536 0.72192-1.4299 0.72192-0.58509 0-1.0618-0.24064-1.4299-0.72192-0.36804-0.49072-0.5519-1.1277-0.5519-1.911 0-0.7927 0.18386-1.4347 0.5519-1.9255s0.8448-0.73587 1.4299-0.73587zm-12.711 11.409c-0.6889 0-1.1988 0.20748-1.5291 0.6227-0.32086 0.40579-0.48111 0.9579-0.48111 1.6562v1.0899l-0.93431 0.070797v0.87798h0.93431v5.9309h1.1607v-5.9309h1.4583v-0.94878h-1.4583v-1.0899c0-0.88707 0.32102-1.3307 0.96273-1.3307 0.23592 0 0.49514 0.042708 0.77825 0.12764l0.25528-0.84956c-0.15099-0.06606-0.32582-0.1178-0.524-0.15555-0.19818-0.047187-0.40565-0.070797-0.6227-0.070797zm4.4586 3.1993c-0.55678 0-1.0802 0.14167-1.571 0.42478-0.48128 0.28311-0.87314 0.69354-1.1751 1.2314-0.29254 0.5379-0.43873 1.1935-0.43873 1.9673 0 0.75495 0.14619 1.4015 0.43873 1.9394 0.30198 0.5379 0.69384 0.94834 1.1751 1.2314 0.49072 0.28311 1.0142 0.42478 1.571 0.42478 0.56622 0 1.0902-0.14167 1.5715-0.42478 0.48128-0.28311 0.86811-0.69354 1.1607-1.2314 0.30198-0.5379 0.4532-1.1845 0.4532-1.9394 0-0.77383-0.15122-1.4294-0.4532-1.9673-0.29254-0.5379-0.67937-0.94834-1.1607-1.2314-0.48128-0.28311-1.0053-0.42478-1.5715-0.42478zm7.6724 0c-0.55678 0-1.0808 0.14167-1.5715 0.42478-0.48128 0.28311-0.87262 0.69354-1.1746 1.2314-0.29254 0.5379-0.43873 1.1935-0.43873 1.9673 0 0.75495 0.14619 1.4015 0.43873 1.9394 0.30198 0.5379 0.69332 0.94834 1.1746 1.2314 0.49072 0.28311 1.0147 0.42478 1.5715 0.42478 0.56622 0 1.0902-0.14167 1.5715-0.42478 0.48128-0.28311 0.86811-0.69354 1.1607-1.2314 0.30198-0.5379 0.45269-1.1845 0.45269-1.9394 0-0.77383-0.1507-1.4294-0.45269-1.9673-0.29254-0.5379-0.67937-0.94834-1.1607-1.2314-0.48128-0.28311-1.0053-0.42478-1.5715-0.42478zm-7.6724 0.96222c0.59453 0 1.0713 0.24567 1.4299 0.73639 0.36804 0.49072 0.5519 1.1322 0.5519 1.9249 0 0.78326-0.18386 1.4203-0.5519 1.911-0.3586 0.48128-0.83536 0.72192-1.4299 0.72192-0.58509 0-1.0613-0.24064-1.4294-0.72192-0.36804-0.49072-0.55242-1.1277-0.55242-1.911 0-0.7927 0.18438-1.4342 0.55242-1.9249 0.36804-0.49072 0.84428-0.73639 1.4294-0.73639zm7.6724 0c0.59453 0 1.0713 0.24567 1.4299 0.73639 0.36804 0.49072 0.5519 1.1322 0.5519 1.9249 0 0.78326-0.18386 1.4203-0.5519 1.911-0.3586 0.48128-0.83536 0.72192-1.4299 0.72192-0.58509 0-1.0618-0.24064-1.4299-0.72192-0.36804-0.49072-0.5519-1.1277-0.5519-1.911 0-0.7927 0.18386-1.4342 0.5519-1.9249 0.36804-0.49072 0.8448-0.73639 1.4299-0.73639z" fill="#f97b58" stroke-width=".10583"/></g></svg>
